<?xml version="1.0" encoding="utf-8"?>
<!-- Generator: Adobe Illustrator 25.0.0, SVG Export Plug-In . SVG Version: 6.00 Build 0)  -->
<svg version="1.1" id="Layer_1" xmlns="http://www.w3.org/2000/svg" xmlns:xlink="http://www.w3.org/1999/xlink" x="0px" y="0px"
	 viewBox="0 0 792 612" style="enable-background:new 0 0 792 612;" xml:space="preserve">
<style type="text/css">
	.st0{fill:#010202;}
	.st1{fill-rule:evenodd;clip-rule:evenodd;fill:#226CB4;}
	.st2{fill:#226CB4;}
	.st3{fill:#E5F1FA;}
</style>
<rect class="st0" width="792" height="612"/>
<g>
	<g>
		<g>
			<path class="st1" d="M227.89,356.64c-2.38,2.42-10.67,10.25-23.95,11.71c-10.71,1.18-18.92-2.41-22.2-4.07
				c2.69,2,8.83,6,17.64,6.88c11.46,1.15,19.95-3.73,22.62-5.41c0.15,0.31,0.35,0.61,0.58,0.89c1.45,1.76,3.96,2.13,5.84,0.96
				l6.98,11.31c-0.18,0.11-0.35,0.23-0.51,0.36c-1.67,1.38-2.09,3.72-1.12,5.56c-3.83,1.93-10.71,4.77-19.77,5.24
				c-9.71,0.5-17.29-1.97-21.33-3.62c4.14,2.25,12.97,6.34,24.82,6.28c13.76-0.07,23.65-5.68,27.61-8.23L227.89,356.64z"/>
		</g>
	</g>
	<g>
		<g>
			<path class="st2" d="M243.08,379.49c0.55-0.27,1.08-0.55,1.61-0.83c1.52-0.82,3.03-1.74,4.52-2.77l1.27-0.88l-0.81-1.32
				l-17.21-27.88l-0.97-1.57c-3.75,4.31-8.92,9.36-15.8,14.04c-3.67,2.5-7.21,4.47-10.44,6.03c3.63-0.92,8.67-2.62,14.08-5.9
				c5.16-3.13,8.87-6.62,11.33-9.31l15.41,24.97c-0.94,0.6-1.92,1.17-2.93,1.72c-0.59,0.32-1.19,0.63-1.78,0.92L243.08,379.49z"/>
		</g>
	</g>
	<g>
		<g>
			<g>
				<g>
					<path class="st2" d="M211.74,376.33c-0.83,1.07-1.3,2.51-1.21,4.09c0.09,1.58,0.73,2.99,1.69,3.99c0.96,1,2.24,1.6,3.6,1.55
						c1.37-0.05,2.57-0.73,3.4-1.8c0.83-1.07,1.3-2.51,1.21-4.09c-0.09-1.58-0.73-2.99-1.69-3.99c-0.96-1-2.24-1.6-3.6-1.55
						C213.78,374.58,212.58,375.26,211.74,376.33 M219.54,375.07c1.19,1.24,1.99,2.99,2.1,4.95c0.12,1.96-0.47,3.76-1.5,5.08
						c-1.04,1.32-2.53,2.17-4.23,2.24c-1.7,0.06-3.29-0.68-4.48-1.92c-1.19-1.24-1.99-2.99-2.1-4.95c-0.12-1.96,0.47-3.76,1.5-5.08
						c1.04-1.32,2.53-2.17,4.23-2.23C216.77,373.08,218.35,373.82,219.54,375.07z"/>
				</g>
			</g>
		</g>
		<g>
			<g>
				<g>
					<path class="st2" d="M216.86,382.65c0.18-0.12,0.3-0.3,0.36-0.52c0.06-0.23,0.05-0.46-0.04-0.71
						c-0.08-0.22-0.19-0.39-0.35-0.52c-0.16-0.13-0.37-0.19-0.64-0.19L216.86,382.65z M214.46,377.57
						c-0.13,0.12-0.21,0.28-0.25,0.47c-0.03,0.19-0.02,0.38,0.05,0.57c0.06,0.17,0.16,0.32,0.29,0.45c0.13,0.12,0.3,0.2,0.5,0.23
						L214.46,377.57z M216.26,382.77l-0.72-2.07c-0.57-0.01-1.04-0.16-1.41-0.45c-0.37-0.29-0.64-0.71-0.83-1.24
						c-0.19-0.54-0.21-1.04-0.07-1.5c0.14-0.46,0.43-0.8,0.85-1.01l-0.17-0.49l0.57-0.2l0.17,0.49c0.44-0.08,0.83-0.02,1.18,0.19
						c0.35,0.21,0.64,0.55,0.88,1.02l-0.94,0.51c-0.2-0.37-0.44-0.58-0.75-0.63l0.67,1.93c0.7,0,1.23,0.13,1.57,0.39
						c0.35,0.26,0.61,0.66,0.8,1.2c0.21,0.6,0.24,1.15,0.09,1.66c-0.15,0.51-0.46,0.9-0.93,1.18l0.32,0.92l-0.57,0.2l-0.32-0.91
						c-0.47,0.09-0.91,0-1.31-0.25c-0.4-0.26-0.76-0.69-1.06-1.31l0.97-0.5c0.13,0.25,0.29,0.45,0.47,0.6
						C215.91,382.64,216.09,382.73,216.26,382.77z"/>
				</g>
			</g>
		</g>
	</g>
	<g>
		<g>
			<path class="st3" d="M252.33,219.65c-1.75-0.7-3.49-1.44-5.27-2.08l-2.69-0.9l-1.35-0.45c-0.45-0.16-0.91-0.26-1.37-0.39
				l-2.75-0.74l-0.69-0.18c-0.23-0.06-0.46-0.12-0.69-0.17l-1.39-0.29l-2.8-0.58c-0.47-0.11-0.94-0.16-1.41-0.23l-1.41-0.21
				c-0.94-0.13-1.89-0.3-2.83-0.41l-2.85-0.26c-1.9-0.22-3.82-0.23-5.73-0.31c-0.96-0.06-1.92-0.03-2.87-0.01l-2.88,0.06
				c-0.96,0.04-1.91,0.13-2.87,0.2l-1.44,0.11c-0.48,0.03-0.96,0.07-1.44,0.14c-7.65,0.85-15.22,2.65-22.48,5.36
				c-0.92,0.31-1.8,0.7-2.7,1.07l-2.68,1.12l-2.62,1.26l-1.31,0.63l-0.65,0.32l-0.64,0.35l-2.56,1.39
				c-0.85,0.48-1.67,0.99-2.51,1.49l-1.25,0.75l-1.22,0.8l-1.22,0.81c-0.4,0.27-0.82,0.53-1.21,0.82
				c-12.8,8.89-23.29,21.2-30.18,35.28c-3.5,7.02-6,14.51-7.69,22.19c-1.58,7.69-2.28,15.59-1.92,23.44l0.06,1.47
				c0.02,0.49,0.08,0.98,0.11,1.47l0.25,2.94l0.38,2.92c0.07,0.49,0.11,0.98,0.2,1.46l0.25,1.45l0.25,1.45l0.13,0.73
				c0.05,0.24,0.1,0.48,0.15,0.72l0.63,2.88c0.1,0.48,0.23,0.95,0.35,1.43l0.37,1.42l0.37,1.42c0.13,0.47,0.29,0.94,0.43,1.41
				c0.3,0.94,0.58,1.88,0.89,2.81c0.33,0.92,0.64,1.86,0.99,2.77c0.35,0.92,0.69,1.84,1.07,2.74l0.56,1.36l0.59,1.35
				c1.6,3.58,3.38,7.09,5.43,10.43c8.1,13.43,19.6,24.78,33.12,32.54c3.37,1.96,6.87,3.68,10.45,5.18c0.89,0.39,1.8,0.74,2.7,1.09
				c0.9,0.37,1.82,0.66,2.74,0.98l2.75,0.94c0.93,0.28,1.86,0.53,2.79,0.8l1.4,0.39l0.7,0.2c0.23,0.07,0.47,0.11,0.71,0.17
				l2.83,0.64l1.41,0.32l1.43,0.25l2.86,0.48c0.24,0.04,0.47,0.09,0.71,0.11l0.72,0.08l1.44,0.16c0.96,0.1,1.91,0.23,2.88,0.31
				l2.89,0.18l1.44,0.09c0.48,0.03,0.96,0.01,1.44,0.02c7.69,0.12,15.38-0.66,22.8-2.46l2.77-0.73c0.46-0.12,0.92-0.24,1.38-0.37
				l1.36-0.44l2.71-0.87c0.9-0.31,1.78-0.66,2.67-0.99c3.55-1.33,6.98-2.97,10.31-4.72l-2.65,0.98c-0.88,0.33-1.75,0.68-2.65,0.95
				l-2.68,0.86l-0.67,0.22l-0.68,0.18l-1.36,0.36c-0.91,0.24-1.8,0.51-2.71,0.73l-2.74,0.6l-1.37,0.3
				c-0.46,0.09-0.92,0.16-1.38,0.24l-2.75,0.48c-0.46,0.09-0.92,0.13-1.38,0.19l-1.39,0.17l-1.38,0.17
				c-0.46,0.06-0.92,0.12-1.38,0.15l-2.78,0.21c-0.46,0.03-0.92,0.07-1.39,0.1l-1.39,0.03l-2.77,0.07
				c-0.92,0.01-1.85-0.04-2.77-0.05l-1.38-0.03l-0.69-0.02l-0.69-0.05l-2.76-0.21c-0.46-0.04-0.92-0.06-1.38-0.11l-1.37-0.17
				l-2.74-0.34c-0.91-0.13-1.81-0.31-2.72-0.47l-1.36-0.24l-0.68-0.12c-0.23-0.04-0.45-0.1-0.67-0.15l-2.68-0.62l-1.34-0.31
				l-1.32-0.38l-2.64-0.75c-0.22-0.07-0.44-0.12-0.66-0.19l-0.65-0.22l-1.3-0.44c-0.86-0.3-1.73-0.58-2.59-0.89l-2.55-1.02
				c-0.85-0.34-1.7-0.66-2.53-1.04c-0.83-0.37-1.67-0.74-2.49-1.14c-3.29-1.57-6.48-3.34-9.56-5.27c-3.08-1.93-6.03-4.06-8.83-6.36
				c-2.81-2.29-5.48-4.75-7.99-7.36c-5.02-5.22-9.39-11.04-13-17.29c-3.6-6.25-6.5-12.92-8.48-19.85c-0.13-0.43-0.27-0.86-0.38-1.3
				l-0.34-1.31l-0.34-1.31c-0.11-0.44-0.23-0.87-0.32-1.31l-0.56-2.64c-0.05-0.22-0.1-0.44-0.14-0.66l-0.11-0.67l-0.22-1.33
				l-0.23-1.33c-0.08-0.44-0.12-0.89-0.18-1.34l-0.34-2.68l-0.22-2.69c-0.03-0.45-0.08-0.9-0.1-1.35l-0.05-1.35
				c-0.36-7.19,0.26-14.42,1.65-21.48c0.4-1.75,0.73-3.53,1.24-5.26l0.35-1.31c0.12-0.43,0.22-0.87,0.37-1.3l0.82-2.58
				c0.25-0.87,0.59-1.7,0.9-2.55l0.47-1.27c0.15-0.42,0.31-0.85,0.49-1.26l1.04-2.5l0.26-0.63l0.28-0.61l0.57-1.23l0.57-1.23
				c0.1-0.2,0.19-0.41,0.29-0.61l0.31-0.6l1.25-2.4c0.2-0.41,0.44-0.79,0.66-1.18l0.68-1.17l0.68-1.17
				c0.22-0.39,0.48-0.76,0.72-1.15l1.46-2.28l1.55-2.22c0.26-0.37,0.51-0.75,0.78-1.11l0.82-1.08l0.82-1.08
				c0.28-0.36,0.54-0.73,0.84-1.07c2.27-2.82,4.75-5.47,7.32-8.03l1.99-1.86c0.34-0.31,0.66-0.63,1-0.92l1.03-0.88l1.03-0.89
				l0.52-0.44c0.18-0.14,0.36-0.28,0.53-0.42l2.15-1.68c5.81-4.37,12.11-8.15,18.84-11.04c6.71-2.91,13.79-5.05,21.05-6.34
				c0.45-0.1,0.91-0.16,1.36-0.22l1.37-0.2c0.91-0.13,1.83-0.28,2.74-0.38l2.76-0.25c0.92-0.08,1.84-0.19,2.77-0.2
				c1.85-0.06,3.7-0.2,5.56-0.13l2.79,0.03c0.93,0.03,1.85,0.11,2.78,0.16C237.7,216.12,245.11,217.47,252.33,219.65z"/>
		</g>
	</g>
	<g>
		<g>
			<path class="st2" d="M190.39,385.48c-3.22-1.65-6.35-3.45-9.34-5.45c-3-1.98-5.86-4.14-8.57-6.46c-2.71-2.33-5.28-4.79-7.68-7.41
				c-2.39-2.62-4.63-5.38-6.67-8.26c-4.11-5.75-7.44-12-9.97-18.53c-1.25-3.27-2.32-6.61-3.18-9.99l-0.57-2.56l-0.28-1.28
				l-0.14-0.64l-0.11-0.65l-0.43-2.58c-0.07-0.43-0.15-0.86-0.21-1.29l-0.15-1.3l-0.3-2.59c-0.06-0.43-0.06-0.87-0.1-1.3l-0.08-1.3
				l-0.08-1.3c-0.03-0.43-0.06-0.87-0.05-1.3l-0.02-2.6c0-0.43-0.01-0.87,0-1.3l0.05-1.3l0.1-2.6c0.05-0.86,0.16-1.73,0.23-2.59
				l0.12-1.29c0.02-0.22,0.04-0.43,0.06-0.65l0.09-0.64c0.27-1.71,0.46-3.43,0.84-5.12l0.51-2.54l0.63-2.52l0.31-1.26
				c0.1-0.42,0.25-0.83,0.37-1.24l0.76-2.48c0.12-0.42,0.27-0.82,0.42-1.23l0.44-1.22l0.44-1.22c0.15-0.41,0.29-0.81,0.46-1.21
				c2.59-6.39,5.87-12.52,9.94-18.08l1.54-2.08l1.62-2.01c0.27-0.33,0.54-0.67,0.82-1l0.86-0.97l0.86-0.97
				c0.29-0.32,0.56-0.65,0.87-0.96l1.8-1.86l0.45-0.46c0.15-0.15,0.31-0.3,0.47-0.45l0.94-0.89c1.23-1.21,2.56-2.3,3.86-3.43
				c0.66-0.55,1.35-1.07,2.02-1.61l1.01-0.8c0.34-0.26,0.7-0.5,1.04-0.76l2.1-1.51l2.16-1.41c0.36-0.23,0.72-0.48,1.09-0.7
				l1.11-0.65c0.75-0.43,1.48-0.88,2.23-1.3c1.53-0.79,3.03-1.63,4.61-2.33c3.09-1.52,6.32-2.74,9.59-3.85
				c1.65-0.5,3.29-1.05,4.97-1.45l1.25-0.32c0.42-0.1,0.83-0.23,1.26-0.31l2.53-0.54c0.84-0.2,1.7-0.32,2.55-0.46l1.28-0.21
				c0.43-0.06,0.85-0.15,1.28-0.19c1.72-0.18,3.43-0.43,5.16-0.51c3.45-0.27,6.91-0.24,10.37-0.09l2.59,0.18
				c0.22,0.02,0.43,0.03,0.65,0.05l0.64,0.08l1.29,0.15c1.73,0.16,3.43,0.5,5.14,0.77c0.85,0.15,1.7,0.35,2.55,0.52l1.28,0.27
				c0.42,0.1,0.84,0.21,1.26,0.32l2.52,0.65l2.49,0.76c0.41,0.13,0.84,0.24,1.25,0.39l1.23,0.44l1.23,0.44
				c0.41,0.15,0.83,0.28,1.23,0.45l2.42,0.98l0.61,0.24c0.2,0.09,0.4,0.18,0.6,0.27l1.19,0.54c1.6,0.69,3.14,1.53,4.69,2.33
				l0.58,0.3c0.19,0.1,0.38,0.22,0.57,0.33l1.14,0.66l1.14,0.66c0.38,0.22,0.77,0.42,1.13,0.67l2.21,1.42
				c0.37,0.24,0.74,0.47,1.1,0.72l1.07,0.77l2.14,1.54l2.07,1.63c1.41,1.06,2.69,2.27,4.02,3.42c0.16,0.15,0.33,0.29,0.49,0.44
				l0.47,0.46l0.95,0.92l0.95,0.92c0.32,0.31,0.64,0.61,0.93,0.94l1.81,1.93c0.3,0.33,0.61,0.64,0.9,0.98l0.86,1.01l1.71,2.03
				l1.62,2.11c1.11,1.39,2.07,2.88,3.09,4.34l0.38,0.55l0.35,0.57l0.7,1.14c0.46,0.76,0.95,1.51,1.39,2.28
				c3.54,6.2,6.35,12.85,8.44,19.78c-0.35-1.77-0.62-3.57-1.1-5.32l-0.65-2.65c-0.23-0.88-0.52-1.74-0.78-2.62
				c-1.04-3.5-2.42-6.88-3.92-10.23c-3.09-6.65-7.12-12.89-11.86-18.57c-4.77-5.65-10.34-10.66-16.44-14.95
				c-0.37-0.28-0.77-0.52-1.16-0.78l-1.17-0.77l-1.17-0.76c-0.2-0.12-0.39-0.26-0.59-0.38l-0.61-0.35c-1.62-0.93-3.22-1.9-4.89-2.72
				l-1.25-0.64c-0.21-0.11-0.41-0.22-0.62-0.32l-0.64-0.29l-2.55-1.17c-0.42-0.2-0.86-0.37-1.29-0.55l-1.3-0.53l-1.3-0.52
				c-0.43-0.17-0.88-0.32-1.32-0.47l-2.65-0.93l-2.69-0.81c-0.45-0.13-0.9-0.27-1.35-0.4l-1.37-0.34c-0.91-0.22-1.82-0.47-2.74-0.67
				c-1.84-0.36-3.68-0.77-5.55-1.01l-1.4-0.21l-0.7-0.1c-0.23-0.03-0.47-0.05-0.7-0.08l-2.81-0.29c-3.75-0.29-7.53-0.44-11.29-0.22
				c-1.89,0.04-3.76,0.27-5.64,0.43c-0.47,0.03-0.94,0.12-1.4,0.18l-1.4,0.2c-0.93,0.13-1.87,0.25-2.8,0.44l-2.78,0.53
				c-0.47,0.08-0.92,0.2-1.38,0.31l-1.38,0.33c-1.84,0.41-3.64,0.98-5.46,1.51c-3.59,1.17-7.15,2.46-10.57,4.08
				c-1.74,0.75-3.39,1.68-5.07,2.54c-0.83,0.45-1.64,0.94-2.46,1.41l-1.23,0.71c-0.41,0.24-0.8,0.51-1.2,0.76l-2.38,1.54l-2.31,1.65
				c-0.38,0.28-0.77,0.54-1.15,0.83l-1.12,0.88l-1.12,0.88c-0.37,0.3-0.75,0.57-1.1,0.89c-1.43,1.24-2.88,2.46-4.23,3.79l-1.03,0.98
				c-0.17,0.16-0.34,0.32-0.51,0.49l-0.49,0.51l-1.96,2.05c-0.33,0.33-0.63,0.7-0.95,1.05l-0.93,1.07l-0.93,1.07
				c-0.31,0.36-0.59,0.74-0.89,1.1l-1.77,2.22l-1.66,2.3c-0.57,0.76-1.08,1.55-1.6,2.34l-0.78,1.19l-0.39,0.59
				c-0.13,0.2-0.24,0.41-0.36,0.61l-1.44,2.44c-0.23,0.41-0.49,0.81-0.71,1.23l-0.66,1.25l-1.31,2.51l-1.19,2.57l-0.59,1.29
				c-0.2,0.43-0.35,0.87-0.53,1.31l-1.04,2.63c-0.18,0.44-0.33,0.88-0.48,1.33l-0.45,1.34l-0.45,1.34
				c-0.15,0.45-0.31,0.89-0.42,1.35l-0.77,2.72c-0.12,0.46-0.27,0.9-0.37,1.36l-0.31,1.38l-0.62,2.76
				c-0.17,0.93-0.32,1.86-0.48,2.79c-0.35,1.85-0.51,3.73-0.74,5.6c-0.78,7.49-0.44,15.07,0.75,22.46c1.21,7.4,3.38,14.61,6.45,21.4
				c1.54,3.39,3.27,6.69,5.23,9.85c1.96,3.16,4.12,6.18,6.47,9.04c2.35,2.85,4.87,5.56,7.57,8.07c2.7,2.5,5.54,4.84,8.53,6.96
				C177.07,379.6,183.6,382.99,190.39,385.48z"/>
		</g>
	</g>
	<g>
		<path class="st3" d="M164.26,298.59c0-5,1.74-8.89,5.23-11.66c3.49-2.77,8.34-4.16,14.55-4.16c3.08,0,5.84,0.38,8.28,1.15
			c2.44,0.77,4.53,1.87,6.26,3.3c1.73,1.43,3.08,3.13,4.04,5.11c0.96,1.98,1.5,4.2,1.61,6.68h-7.83c-0.06-1.21-0.34-2.39-0.87-3.54
			c-0.52-1.15-1.31-2.18-2.35-3.09c-1.04-0.91-2.36-1.63-3.96-2.18c-1.59-0.55-3.49-0.82-5.69-0.82c-3.57,0-6.44,0.81-8.61,2.43
			c-2.17,1.62-3.26,3.89-3.26,6.8c0,1.7,0.38,3.12,1.15,4.24c0.77,1.13,1.81,2.06,3.13,2.8c1.32,0.74,2.84,1.35,4.57,1.81
			c1.73,0.47,3.53,0.92,5.4,1.36c2.31,0.49,4.62,1.03,6.92,1.61c2.31,0.58,4.4,1.4,6.26,2.47c1.87,1.07,3.38,2.49,4.53,4.24
			c1.15,1.76,1.73,4.09,1.73,7.01c0,4.89-1.69,8.7-5.07,11.42c-3.38,2.72-8.31,4.08-14.79,4.08c-3.41,0-6.48-0.39-9.23-1.15
			c-2.75-0.77-5.1-1.87-7.05-3.3c-1.95-1.43-3.46-3.16-4.53-5.19c-1.07-2.03-1.61-4.31-1.61-6.84h7.83
			c0.49,3.13,1.99,5.56,4.49,7.29c2.5,1.73,5.81,2.6,9.93,2.6c3.9,0,6.98-0.73,9.23-2.18c2.25-1.46,3.38-3.39,3.38-5.81
			c0-1.7-0.38-3.1-1.15-4.2c-0.77-1.1-1.81-2.01-3.13-2.72c-1.32-0.71-2.84-1.29-4.57-1.73c-1.73-0.44-3.53-0.85-5.4-1.24
			c-2.31-0.49-4.62-1.04-6.92-1.65c-2.31-0.6-4.4-1.48-6.26-2.64c-1.87-1.15-3.38-2.71-4.53-4.66
			C164.83,304.26,164.26,301.72,164.26,298.59z"/>
		<path class="st3" d="M215.36,283.5c0-1.37,0.47-2.53,1.4-3.46c0.93-0.93,2.09-1.4,3.46-1.4c1.37,0,2.53,0.47,3.46,1.4
			c0.93,0.93,1.4,2.09,1.4,3.46c0,1.37-0.47,2.53-1.4,3.46c-0.93,0.93-2.09,1.4-3.46,1.4c-1.37,0-2.53-0.47-3.46-1.4
			C215.82,286.03,215.36,284.88,215.36,283.5z M216.92,296.61h6.59v42.2h-6.59V296.61z"/>
		<path class="st3" d="M236.7,296.61h6.59v7.5c1.54-2.58,3.5-4.62,5.89-6.1c2.39-1.48,5.12-2.23,8.2-2.23c3.3,0,6.03,0.89,8.2,2.68
			c2.17,1.79,3.69,4.16,4.57,7.13c1.48-3.02,3.49-5.41,6.02-7.17c2.53-1.76,5.47-2.64,8.82-2.64c2.14,0,4.05,0.4,5.73,1.2
			c1.68,0.8,3.09,1.88,4.24,3.26c1.15,1.37,2.03,3.01,2.64,4.9c0.6,1.9,0.91,3.94,0.91,6.14v27.53h-6.59V312.6
			c0-3.46-0.87-6.09-2.6-7.87c-1.73-1.78-3.94-2.68-6.63-2.68c-1.65,0-3.17,0.45-4.57,1.36c-1.4,0.91-2.62,2.09-3.67,3.54
			c-1.04,1.46-1.88,3.08-2.51,4.86c-0.63,1.79-0.98,3.59-1.03,5.4v21.59h-6.59V312.6c0-3.46-0.87-6.09-2.6-7.87
			c-1.73-1.78-3.94-2.68-6.63-2.68c-1.65,0-3.17,0.45-4.57,1.36c-1.4,0.91-2.62,2.09-3.67,3.54c-1.04,1.46-1.88,3.08-2.51,4.86
			c-0.63,1.79-0.98,3.59-1.03,5.4v21.59h-6.59V296.61z"/>
		<path class="st3" d="M311.71,356.36v-59.75h6.59v6.76c1.54-2.36,3.56-4.22,6.06-5.56c2.5-1.35,5.65-2.02,9.44-2.02
			c3.02,0,5.82,0.58,8.41,1.73c2.58,1.15,4.81,2.72,6.68,4.7c1.87,1.98,3.34,4.3,4.41,6.96c1.07,2.67,1.61,5.54,1.61,8.61
			c0,2.97-0.54,5.77-1.61,8.41c-1.07,2.64-2.54,4.95-4.41,6.92c-1.87,1.98-4.09,3.54-6.68,4.7c-2.58,1.15-5.39,1.73-8.41,1.73
			c-3.79,0-6.94-0.67-9.44-2.02c-2.5-1.35-4.52-3.17-6.06-5.48v24.31H311.71z M318.3,314.99v5.69c0.27,1.7,0.81,3.31,1.61,4.82
			c0.8,1.51,1.83,2.82,3.09,3.91c1.26,1.1,2.73,1.98,4.41,2.64c1.68,0.66,3.53,0.99,5.56,0.99c2.31,0,4.4-0.42,6.26-1.28
			c1.87-0.85,3.43-1.98,4.7-3.38c1.26-1.4,2.24-3.02,2.93-4.86c0.69-1.84,1.03-3.75,1.03-5.73c0-2.03-0.34-3.98-1.03-5.85
			c-0.69-1.87-1.66-3.52-2.93-4.95c-1.26-1.43-2.83-2.57-4.7-3.42c-1.87-0.85-3.96-1.28-6.26-1.28c-2.03,0-3.9,0.33-5.6,0.99
			c-1.7,0.66-3.19,1.57-4.45,2.72c-1.26,1.15-2.28,2.5-3.05,4.04C319.09,311.58,318.57,313.23,318.3,314.99z"/>
		<path class="st3" d="M364.78,279.47h6.59v59.34h-6.59V279.47z"/>
		<path class="st3" d="M388.27,319.6c0.22,1.87,0.73,3.64,1.52,5.32c0.8,1.68,1.83,3.12,3.09,4.33c1.26,1.21,2.77,2.17,4.53,2.88
			c1.76,0.71,3.68,1.07,5.77,1.07c2.86,0,5.27-0.59,7.25-1.77c1.98-1.18,3.46-2.65,4.45-4.41h7.99c-1.26,3.74-3.61,6.76-7.05,9.07
			c-3.43,2.31-7.65,3.46-12.65,3.46c-3.02,0-5.87-0.58-8.53-1.73c-2.67-1.15-4.99-2.72-6.96-4.7c-1.98-1.98-3.54-4.29-4.7-6.92
			c-1.15-2.64-1.73-5.47-1.73-8.49c0-3.08,0.55-5.95,1.65-8.61c1.1-2.66,2.61-4.99,4.53-6.96c1.92-1.98,4.19-3.53,6.8-4.66
			c2.61-1.13,5.43-1.69,8.45-1.69c2.97,0,5.71,0.44,8.24,1.32c2.53,0.88,4.74,2.12,6.63,3.71c1.9,1.59,3.43,3.5,4.62,5.73
			c1.18,2.23,1.88,4.71,2.1,7.46c0.11,0.88,0.16,1.68,0.16,2.39c0,0.16-0.01,0.51-0.04,1.03c-0.03,0.52-0.07,1.25-0.12,2.18H388.27z
			 M416.79,314c-0.16-1.81-0.62-3.45-1.36-4.9c-0.74-1.46-1.73-2.71-2.97-3.75c-1.24-1.04-2.68-1.84-4.33-2.39
			c-1.65-0.55-3.46-0.82-5.44-0.82c-1.92,0-3.68,0.3-5.27,0.91c-1.59,0.61-3,1.44-4.2,2.51c-1.21,1.07-2.21,2.32-3.01,3.75
			c-0.8,1.43-1.36,3-1.69,4.7H416.79z"/>
		<path class="st3" d="M471.1,283.59h8.98l21.26,55.22h-7.5l-4.62-12.03h-27.28l-4.62,12.03h-7.5L471.1,283.59z M486.76,320.18
			l-11.13-29.34l-11.21,29.34H486.76z"/>
		<path class="st3" d="M508.03,308.15c0-3.79,1.41-6.8,4.24-9.02c2.83-2.23,6.69-3.34,11.58-3.34c4.83,0,8.68,1.1,11.54,3.3
			c2.86,2.2,4.37,5.22,4.53,9.07h-7.01c-0.11-1.87-0.95-3.37-2.51-4.49c-1.57-1.13-3.61-1.69-6.14-1.69c-6.15,0-9.23,1.98-9.23,5.93
			c0,1.37,0.37,2.47,1.11,3.3c0.74,0.82,1.72,1.5,2.93,2.02c1.21,0.52,2.6,0.95,4.16,1.28s3.14,0.67,4.74,1.03
			c1.59,0.36,3.17,0.78,4.74,1.28c1.57,0.49,2.95,1.17,4.16,2.02c1.21,0.85,2.18,1.94,2.93,3.26c0.74,1.32,1.11,2.97,1.11,4.95
			c0,3.9-1.44,6.95-4.33,9.15c-2.88,2.2-6.91,3.3-12.07,3.3c-2.64,0-5.03-0.3-7.17-0.91c-2.14-0.6-3.97-1.44-5.48-2.51
			c-1.51-1.07-2.68-2.38-3.5-3.91c-0.82-1.54-1.24-3.24-1.24-5.11h7.09c0.77,4.18,4.31,6.26,10.63,6.26c6.04,0,9.07-1.87,9.07-5.6
			c0-1.81-0.65-3.15-1.94-4c-1.29-0.85-2.88-1.52-4.78-2.02c-1.9-0.49-3.97-0.93-6.22-1.32c-2.25-0.38-4.33-1-6.22-1.85
			c-1.9-0.85-3.49-2.07-4.78-3.67C508.67,313.23,508.03,311.01,508.03,308.15z"/>
		<path class="st3" d="M550.06,308.15c0-3.79,1.41-6.8,4.24-9.02c2.83-2.23,6.69-3.34,11.58-3.34c4.83,0,8.68,1.1,11.54,3.3
			c2.86,2.2,4.37,5.22,4.53,9.07h-7.01c-0.11-1.87-0.95-3.37-2.51-4.49c-1.57-1.13-3.61-1.69-6.14-1.69c-6.15,0-9.23,1.98-9.23,5.93
			c0,1.37,0.37,2.47,1.11,3.3c0.74,0.82,1.72,1.5,2.93,2.02c1.21,0.52,2.6,0.95,4.16,1.28c1.57,0.33,3.14,0.67,4.74,1.03
			c1.59,0.36,3.17,0.78,4.74,1.28c1.57,0.49,2.95,1.17,4.16,2.02c1.21,0.85,2.18,1.94,2.93,3.26s1.11,2.97,1.11,4.95
			c0,3.9-1.44,6.95-4.33,9.15c-2.88,2.2-6.91,3.3-12.07,3.3c-2.64,0-5.03-0.3-7.17-0.91c-2.14-0.6-3.97-1.44-5.48-2.51
			c-1.51-1.07-2.68-2.38-3.5-3.91c-0.82-1.54-1.24-3.24-1.24-5.11h7.09c0.77,4.18,4.31,6.26,10.63,6.26c6.04,0,9.07-1.87,9.07-5.6
			c0-1.81-0.65-3.15-1.94-4c-1.29-0.85-2.88-1.52-4.78-2.02c-1.9-0.49-3.97-0.93-6.22-1.32c-2.25-0.38-4.33-1-6.22-1.85
			c-1.9-0.85-3.49-2.07-4.78-3.67C550.71,313.23,550.06,311.01,550.06,308.15z"/>
		<path class="st3" d="M597.37,319.6c0.22,1.87,0.73,3.64,1.52,5.32c0.8,1.68,1.83,3.12,3.09,4.33c1.26,1.21,2.77,2.17,4.53,2.88
			c1.76,0.71,3.68,1.07,5.77,1.07c2.86,0,5.27-0.59,7.25-1.77c1.98-1.18,3.46-2.65,4.45-4.41h7.99c-1.26,3.74-3.61,6.76-7.05,9.07
			c-3.43,2.31-7.65,3.46-12.65,3.46c-3.02,0-5.87-0.58-8.53-1.73c-2.67-1.15-4.99-2.72-6.96-4.7c-1.98-1.98-3.54-4.29-4.7-6.92
			c-1.15-2.64-1.73-5.47-1.73-8.49c0-3.08,0.55-5.95,1.65-8.61c1.1-2.66,2.61-4.99,4.53-6.96c1.92-1.98,4.19-3.53,6.8-4.66
			c2.61-1.13,5.43-1.69,8.45-1.69c2.97,0,5.71,0.44,8.24,1.32c2.53,0.88,4.74,2.12,6.63,3.71c1.9,1.59,3.43,3.5,4.62,5.73
			c1.18,2.23,1.88,4.71,2.1,7.46c0.11,0.88,0.16,1.68,0.16,2.39c0,0.16-0.01,0.51-0.04,1.03c-0.03,0.52-0.07,1.25-0.12,2.18H597.37z
			 M625.89,314c-0.16-1.81-0.62-3.45-1.36-4.9c-0.74-1.46-1.73-2.71-2.97-3.75c-1.24-1.04-2.68-1.84-4.33-2.39
			c-1.65-0.55-3.46-0.82-5.44-0.82c-1.92,0-3.68,0.3-5.27,0.91c-1.59,0.61-3,1.44-4.2,2.51c-1.21,1.07-2.21,2.32-3.01,3.75
			c-0.8,1.43-1.36,3-1.69,4.7H625.89z"/>
		<path class="st3" d="M654.9,283.59v13.02h12.45v6.18H654.9v23.74c0,2.8,0.58,4.67,1.73,5.6c1.15,0.94,2.69,1.4,4.62,1.4
			c1.7,0,3.74-0.22,6.1-0.66v6.18c-1.26,0.16-2.51,0.32-3.75,0.45c-1.24,0.14-2.4,0.21-3.5,0.21c-1.7,0-3.28-0.19-4.74-0.58
			c-1.46-0.38-2.71-1.06-3.75-2.02c-1.04-0.96-1.85-2.28-2.43-3.96c-0.58-1.68-0.87-3.78-0.87-6.31v-24.07h-8.24v-6.18h8.24v-13.02
			H654.9z"/>
	</g>
	<g>
		<path class="st2" d="M289.83,393.09h-4.07v-8.95c0-0.27-0.1-0.5-0.29-0.68c-0.19-0.18-0.42-0.27-0.69-0.27H269.5v9.22l0.52,0.69
			h-4.1v-13.5h18.86c0.27,0,0.5-0.1,0.69-0.29c0.19-0.19,0.29-0.42,0.29-0.69v-4.38c0-0.27-0.1-0.5-0.29-0.69
			c-0.19-0.19-0.42-0.29-0.69-0.29h-18.86l0.02-3.57h18.84c1.25,0,2.33,0.44,3.22,1.33c0.89,0.89,1.33,1.96,1.33,3.22v4.38
			c0,1.02-0.33,1.94-0.98,2.76c0.65,0.83,0.98,1.75,0.98,2.79v8.24L289.83,393.09z"/>
		<path class="st2" d="M295.47,369.68h21.81v3.57h-17.77v6.53h14.12v3.6h-14.12v6.14h17.77v3.57h-21.27h-0.55l0.48-0.69v-22.03
			L295.47,369.68z"/>
		<path class="st2" d="M322.97,369.68h22.29v3.57h-9.38v19.15l0.52,0.69h-4.1v-19.84h-9.34V369.68z"/>
		<path class="st2" d="M371.13,388.54v-18.86h4.05l-0.45,0.69v18.17c0,1.25-0.44,2.33-1.33,3.22c-0.89,0.89-1.96,1.33-3.21,1.33
			h-14.31c-1.25,0-2.33-0.44-3.22-1.33c-0.89-0.89-1.33-1.96-1.33-3.22v-18.17l-0.43-0.67l4-0.02v18.86c0,0.27,0.1,0.5,0.29,0.69
			c0.19,0.19,0.42,0.29,0.69,0.29h14.31c0.27,0,0.5-0.1,0.68-0.29C371.04,389.04,371.13,388.81,371.13,388.54z"/>
		<path class="st2" d="M405.28,384.16v8.24l0.52,0.69h-4.1v-8.95c0-0.27-0.1-0.5-0.29-0.68c-0.19-0.18-0.42-0.27-0.69-0.27h-14.81
			c-0.27,0-0.5,0.09-0.68,0.27c-0.18,0.18-0.27,0.4-0.27,0.66v8.98h-4.1l0.52-0.69v-22.03l-0.52-0.69h19.86
			c1.25,0,2.33,0.44,3.21,1.33c0.89,0.89,1.33,1.96,1.33,3.22v4.38c0,1.03-0.32,1.95-0.95,2.76
			C404.96,382.18,405.28,383.11,405.28,384.16z M401.7,378.61v-4.38c0-0.27-0.1-0.5-0.29-0.69c-0.19-0.19-0.42-0.29-0.69-0.29
			h-14.81c-0.27,0-0.5,0.09-0.68,0.27c-0.18,0.18-0.27,0.41-0.27,0.68v4.45c0,0.25,0.09,0.47,0.27,0.66
			c0.18,0.18,0.41,0.27,0.68,0.27h14.81c0.27,0,0.5-0.1,0.69-0.29C401.61,379.11,401.7,378.88,401.7,378.61z"/>
		<path class="st2" d="M433.65,369.68v22.72l0.52,0.69h-4.1v-0.14l-0.07,0.05l-14.53-17.69v17.1l0.52,0.69h-4.1v-22.72l-0.48-0.69
			h4.05v0.14l0.07-0.07l14.53,17.69v-17.08l-0.48-0.69H433.65z"/>
		<path class="st2" d="M476.27,379.59c1.25,0,2.33,0.44,3.22,1.33c0.89,0.89,1.33,1.96,1.33,3.22v4.41c0,1.25-0.44,2.33-1.33,3.22
			c-0.89,0.89-1.96,1.33-3.22,1.33h-18.84l-0.02-3.57h18.86c0.27,0,0.5-0.1,0.69-0.29c0.19-0.19,0.29-0.42,0.29-0.69v-4.41
			c0-0.27-0.1-0.5-0.29-0.69c-0.19-0.19-0.42-0.29-0.69-0.29h-14.31c-1.25,0-2.33-0.44-3.21-1.33c-0.89-0.89-1.33-1.96-1.33-3.21
			v-4.38c0-1.25,0.44-2.33,1.33-3.22c0.89-0.89,1.96-1.33,3.21-1.33h18.84l0.02,3.57h-18.86c-0.27,0-0.5,0.1-0.69,0.29
			c-0.19,0.19-0.29,0.42-0.29,0.69v4.38c0,0.27,0.1,0.5,0.29,0.69c0.19,0.19,0.42,0.29,0.69,0.29H476.27z"/>
		<path class="st2" d="M486.4,369.68h21.81v3.57h-17.77v6.53h14.12v3.6h-14.12v6.14h17.77v3.57h-21.27h-0.55l0.48-0.69v-22.03
			L486.4,369.68z"/>
		<path class="st2" d="M538.31,384.16v8.24l0.52,0.69h-4.1v-8.95c0-0.27-0.1-0.5-0.29-0.68c-0.19-0.18-0.42-0.27-0.69-0.27h-14.81
			c-0.27,0-0.5,0.09-0.68,0.27c-0.18,0.18-0.27,0.4-0.27,0.66v8.98h-4.1l0.52-0.69v-22.03l-0.52-0.69h19.86
			c1.25,0,2.33,0.44,3.21,1.33c0.89,0.89,1.33,1.96,1.33,3.22v4.38c0,1.03-0.32,1.95-0.95,2.76
			C537.99,382.18,538.31,383.11,538.31,384.16z M534.74,378.61v-4.38c0-0.27-0.1-0.5-0.29-0.69s-0.42-0.29-0.69-0.29h-14.81
			c-0.27,0-0.5,0.09-0.68,0.27c-0.18,0.18-0.27,0.41-0.27,0.68v4.45c0,0.25,0.09,0.47,0.27,0.66c0.18,0.18,0.41,0.27,0.68,0.27
			h14.81c0.27,0,0.5-0.1,0.69-0.29C534.64,379.11,534.74,378.88,534.74,378.61z"/>
		<path class="st2" d="M557.28,388.81l8.26-19.12h4.6l-0.71,0.69l-10.12,22.72h-4.07l-10.12-22.72l-0.64-0.69h4.55L557.28,388.81z"
			/>
		<path class="st2" d="M579.82,369.68v22.72l0.52,0.69h-4.1v-22.72l-0.48-0.69H579.82z"/>
		<path class="st2" d="M590.55,373.25c-0.27,0-0.5,0.1-0.69,0.29s-0.29,0.42-0.29,0.69v14.31c0,0.27,0.1,0.5,0.29,0.69
			c0.19,0.19,0.42,0.29,0.69,0.29h18.86v3.57h-18.86c-1.25,0-2.33-0.44-3.21-1.33c-0.89-0.89-1.33-1.96-1.33-3.22v-14.31
			c0-1.25,0.44-2.33,1.33-3.22c0.89-0.89,1.96-1.33,3.21-1.33h18.84l0.02,3.57H590.55z"/>
		<path class="st2" d="M615,369.68h21.81v3.57h-17.77v6.53h14.12v3.6h-14.12v6.14h17.77v3.57h-21.27H615l0.48-0.69v-22.03
			L615,369.68z"/>
		<path class="st2" d="M647.05,373.25c-0.27,0-0.5,0.1-0.69,0.29s-0.29,0.42-0.29,0.69v4.38c0,0.27,0.1,0.5,0.29,0.69
			c0.19,0.19,0.42,0.29,0.69,0.29h14.31c1.25,0,2.33,0.44,3.22,1.33c0.89,0.89,1.33,1.96,1.33,3.22v4.41c0,1.25-0.44,2.33-1.33,3.22
			c-0.89,0.89-1.96,1.33-3.22,1.33h-18.84l-0.02-3.57h18.86c0.27,0,0.5-0.1,0.69-0.29c0.19-0.19,0.29-0.42,0.29-0.69v-4.41
			c0-0.27-0.1-0.5-0.29-0.69c-0.19-0.19-0.42-0.29-0.69-0.29h-14.31c-1.25,0-2.33-0.44-3.21-1.33c-0.89-0.89-1.33-1.96-1.33-3.21
			v-4.38c0-1.25,0.44-2.33,1.33-3.22c0.89-0.89,1.96-1.33,3.21-1.33h18.84l0.02,3.57H647.05z"/>
	</g>
</g>
</svg>
